<svg xmlns="http://www.w3.org/2000/svg" width="88.452" height="40" viewBox="0 0 88.452 40">
  <g id="Full_Logo" data-name="Full Logo" transform="translate(-0.22)">
    <path id="Path_392" data-name="Path 392" d="M32.913,5.96A3.157,3.157,0,0,0,30.2,7.23l-.3-1.143H28V16.823h2.308l.045-7.764c1.609-1.758,4.7-1.532,4.55,1.412v6.353h2.2V10.47a2.246,2.246,0,0,1,2.308-2.541c1.207,0,2.287.72,2.287,2.6v6.289h2.266V10.576c0-3.43-2.054-4.637-4.553-4.637A3.78,3.78,0,0,0,36,7.739,3.287,3.287,0,0,0,32.913,5.96ZM56.619,16.823V6.087H54.311v7.835a2.92,2.92,0,0,1-5.167-1.779V6.087H46.836v6.056a4.663,4.663,0,0,0,4.87,4.849,3.259,3.259,0,0,0,2.71-1.355l.3,1.186Zm6.613-6.459c-.678-.148-1.673-.275-1.694-1.207-.021-.974,1-1.271,1.694-1.271a3.181,3.181,0,0,1,2.033.8l1.271-1.419A4.489,4.489,0,0,0,63.19,5.854c-1.99,0-3.9,1.165-3.9,3.282.021,2.033,1.652,2.9,3.43,3.2.72.127,1.821.445,1.821,1.482,0,.911-1.016,1.207-1.821,1.165a3.3,3.3,0,0,1-2.287-1.313L59,15.065a4.494,4.494,0,0,0,3.79,1.99c1.736,0,4-.847,4-3.3C66.789,11.656,65.053,10.7,63.232,10.364Zm8.289-5.781V2h-2.35V4.583ZM69.192,6.045V16.823H71.5V6.045ZM83.686,7.611a5.482,5.482,0,0,0-4-1.736,5.4,5.4,0,0,0-5.569,5.59,5.322,5.322,0,0,0,5.569,5.59,5.823,5.823,0,0,0,4.087-1.821l-1.313-1.419a3.718,3.718,0,0,1-2.774,1.143A3.21,3.21,0,0,1,76.4,11.508a3.25,3.25,0,0,1,3.261-3.515,3.744,3.744,0,0,1,2.732,1.059Z" transform="translate(4.901 0.353)" fill="#fff"/>
    <path id="Path_393" data-name="Path 393" d="M17.392,0V4.162c0,4.866.015,9.748-.015,14.613a1.473,1.473,0,0,0,.858,1.5c2.494,1.378,4.941,2.846,7.411,4.284.118.076.245.168.471.321-3.673,2.127-7.254,4.193-11.017,6.366V4.025c-1.072.612-1.959,1.1-2.83,1.592C9.327,7.3,6.407,9.014,3.455,10.665a1.482,1.482,0,0,0-.887,1.485c.031,5.234.031,10.451,0,15.685A1.3,1.3,0,0,0,3.3,29.106c4.667,2.678,8.881,5.212,13.549,7.875a1.294,1.294,0,0,0,1.479,0c1.859-.991,8.4-4.726,12.792-7.231,1.873-1.071,1.8-1.443,1.806-3.2C32.934,20.4,32.9,8.47,32.9,8.47l2.355,2.169s0,13.664.013,18.634a1.131,1.131,0,0,1-.658,1.133q-8.149,4.682-16.282,9.411a1.035,1.035,0,0,1-1.194-.015q-7.964-4.614-15.96-9.2a1.6,1.6,0,0,1-.949-1.592C.271,22.94.256,16.88.241,10.805a1.42,1.42,0,0,1,.78-1.454c4.823-2.706,9.595-5.479,14.4-8.217C16.03.78,16.642.444,17.392,0Z" transform="translate(0)" fill="#fff"/>
    <path id="Path_394" data-name="Path 394" d="M37.614,22.881c0-3.3-2.16-5.357-4.764-5.4a3.89,3.89,0,0,0-2.583.868V13.5H28V28.323l1.176-.118.751-1.026a3.185,3.185,0,0,0,2.753,1.313C35.581,28.535,37.614,26.248,37.614,22.881Zm-5.1,3.579a2.293,2.293,0,0,1-2.266-1.249v-5.1a3.878,3.878,0,0,1,2.1-.614c2.1.042,3.028,1.652,3.028,3.6C35.369,24.787,34.395,26.459,32.51,26.459Zm9.567-3.494a3.254,3.254,0,0,1,3.3-3.473,3.216,3.216,0,0,1,3.282,3.473,3.253,3.253,0,0,1-3.282,3.515A3.291,3.291,0,0,1,42.077,22.965Zm8.894,0a5.6,5.6,0,0,0-11.2,0,5.6,5.6,0,0,0,11.2,0Zm6.216-1.334-2.541-4.066H51.956l3.6,5.379-3.663,5.379H54.37l2.8-4.066,2.71,4.066H62.4l-3.642-5.379,3.6-5.379h-2.5Z" transform="translate(4.901 2.382)" fill="#fff"/>
  </g>
</svg>
